<?xml version="1.0" encoding="UTF-8"?>
<svg width="14px" height="18px" viewBox="0 0 14 18" version="1.1" xmlns="http://www.w3.org/2000/svg" xmlns:xlink="http://www.w3.org/1999/xlink">
    <!-- Generator: Sketch 53.2 (72643) - https://sketchapp.com -->
    <title>outline-format_underlined</title>
    <desc>Created with Sketch.</desc>
    <g id="4/2-确认稿件" stroke="none" stroke-width="1" fill="none" fill-rule="evenodd">
        <g id="outline-format_underlined" transform="translate(-5.000000, -3.000000)">
            <polygon id="Path" points="0 0 24 0 24 24 0 24"></polygon>
            <path d="M12,17 C15.31,17 18,14.31 18,11 L18,3 L15.5,3 L15.5,11 C15.5,12.93 13.93,14.5 12,14.5 C10.07,14.5 8.5,12.93 8.5,11 L8.5,3 L6,3 L6,11 C6,14.31 8.69,17 12,17 Z M5,19 L5,21 L19,21 L19,19 L5,19 Z" id="Shape" fill="#979A9E" fill-rule="nonzero"></path>
        </g>
    </g>
</svg>