<?xml version="1.0" encoding="UTF-8"?>
<svg width="60px" height="60px" viewBox="0 0 60 60" version="1.1" xmlns="http://www.w3.org/2000/svg" xmlns:xlink="http://www.w3.org/1999/xlink">
    <!-- Generator: Sketch 53 (72520) - https://sketchapp.com -->
    <title>B-on</title>
    <desc>Created with Sketch.</desc>
    <g id="Page-1" stroke="none" stroke-width="1" fill="none" fill-rule="evenodd">
        <g id="切图2" transform="translate(-252.000000, -210.000000)" fill="#FFFFFF" fill-rule="nonzero">
            <g id="Group-2-Copy" transform="translate(252.000000, 210.000000)">
                <path d="M15,9 L31.5527344,9 C35.7519741,9.0390627 38.9062395,10.0937396 41.015625,12.1640625 C43.1445419,14.2539167 44.2089844,17.0175609 44.2089844,20.4550781 C44.2480471,22.2128994 43.8281294,23.8925701 42.9492188,25.4941406 C42.4999978,26.2558632 41.8554729,26.9785122 41.015625,27.6621094 C40.1757771,28.3847692 39.1406312,29.0390596 37.9101562,29.625 L37.9101562,29.7421875 C40.2343866,30.3476593 41.9921815,31.5683502 43.1835938,33.4042969 C44.2968806,35.2988376 44.8535156,37.3593639 44.8535156,39.5859375 C44.8144529,43.2773622 43.6621207,46.1972549 41.3964844,48.3457031 C39.1503794,50.5918081 36.347673,51.7148438 32.9882812,51.7148438 L15,51.7148438 L15,9 Z M21.4746094,32.7597656 L21.4746094,45.5917969 L31.4355469,45.5917969 C33.8379026,45.5527342 35.5956976,44.8984438 36.7089844,43.6289062 C37.8222712,42.3789 38.3789062,40.8945398 38.3789062,39.1757812 C38.3789062,37.41796 37.8222712,35.9140688 36.7089844,34.6640625 C35.5956976,33.4335876 33.8379026,32.7988283 31.4355469,32.7597656 L21.4746094,32.7597656 Z M21.4746094,14.7714844 L21.4746094,26.9882812 L30.8203125,26.9882812 C33.1836056,26.9882812 34.9218694,26.373053 36.0351562,25.1425781 C37.1679744,24.00976 37.734375,22.583993 37.734375,20.8652344 C37.734375,19.1464758 37.1679744,17.6914122 36.0351562,16.5 C34.9218694,15.3867132 33.1836056,14.8105471 30.8203125,14.7714844 L21.4746094,14.7714844 Z" id="B-Copy-2"></path>
            </g>
        </g>
    </g>
</svg>
