<?xml version="1.0" encoding="UTF-8"?>
<svg width="90px" height="90px" viewBox="0 0 90 90" version="1.1" xmlns="http://www.w3.org/2000/svg" xmlns:xlink="http://www.w3.org/1999/xlink">
    <!-- Generator: Sketch 53 (72520) - https://sketchapp.com -->
    <title>cancel</title>
    <desc>Created with Sketch.</desc>
    <g id="Page-1" stroke="none" stroke-width="1" fill="none" fill-rule="evenodd">
        <g id="切图2" transform="translate(-594.000000, -321.000000)" fill="#CCCCCC">
            <g id="Group-13" transform="translate(594.000000, 321.000000)">
                <polygon id="Rectangle" transform="translate(44.684482, 44.711418) rotate(-315.000000) translate(-44.684482, -44.711418) " points="41.6844821 5.71141777 47.6844821 5.71141777 47.6844821 83.7114178 41.6844821 83.7114178"></polygon>
                <path d="M44.9859973,81.012933 C64.8682483,81.012933 80.9859973,64.8951839 80.9859973,45.012933 C80.9859973,25.130682 64.8682483,9.01293296 44.9859973,9.01293296 C25.1037463,9.01293296 8.98599727,25.130682 8.98599727,45.012933 C8.98599727,64.8951839 25.1037463,81.012933 44.9859973,81.012933 Z M44.9859973,87.012933 C21.7900378,87.012933 2.98599727,68.2088924 2.98599727,45.012933 C2.98599727,21.8169735 21.7900378,3.01293296 44.9859973,3.01293296 C68.1819568,3.01293296 86.9859973,21.8169735 86.9859973,45.012933 C86.9859973,68.2088924 68.1819568,87.012933 44.9859973,87.012933 Z" id="Oval" fill-rule="nonzero"></path>
            </g>
        </g>
    </g>
</svg>
