<?xml version="1.0" encoding="UTF-8"?>
<svg width="91px" height="90px" viewBox="0 0 91 90" version="1.1" xmlns="http://www.w3.org/2000/svg" xmlns:xlink="http://www.w3.org/1999/xlink">
    <!-- Generator: Sketch 53 (72520) - https://sketchapp.com -->
    <title>picker</title>
    <desc>Created with Sketch.</desc>
    <g id="Page-1" stroke="none" stroke-width="1" fill="none" fill-rule="evenodd">
        <g id="切图2" transform="translate(-474.000000, -321.000000)">
            <g id="Group-8" transform="translate(474.000000, 321.000000)">
                <g id="Group-12" transform="translate(0.000000, 3.000000)">
                    <g id="Group-9" transform="translate(45.000000, 43.500000) rotate(-315.000000) translate(-45.000000, -43.500000) translate(30.000000, -3.000000)">
                        <path d="M24,24 C27.3137085,24 30,26.6862915 30,30 C30,33.3137085 27.3137085,36 24,36 L6,36 C2.6862915,36 4.05812251e-16,33.3137085 0,30 C-4.05812251e-16,26.6862915 2.6862915,24 6,24 L6,9 C6,4.02943725 10.0294373,1.14599915e-13 15,1.13686838e-13 C19.9705627,1.1277376e-13 24,4.02943725 24,9 L24,24 Z" id="Combined-Shape" stroke="#CCCCCC" stroke-width="6" stroke-linejoin="round"></path>
                        <path d="M21,75.354102 L21,87 C21,90.3137085 18.3137085,93 15,93 C11.6862915,93 9,90.3137085 9,87 L9,75.354102 C9,73.148348 8.48644317,70.9728863 7.5,69 L7.5,69 C6.51355683,67.0271137 6,64.851652 6,62.645898 L6,36 L24,36 L24,62.645898 C24,64.851652 23.4864432,67.0271137 22.5,69 L22.5,69 C21.5135568,70.9728863 21,73.148348 21,75.354102 Z" id="Path" stroke="#CCCCCC" stroke-width="6" stroke-linejoin="round"></path>
                        <path d="M8.41904756,67.4779221 L24.9190476,50.9779221 L24.2969949,63.7321025 L20.6944792,73.9119542 L20.9558441,80.0147186 L18.8194205,91.4892374 C15.0206205,91.63166 13.1212205,91.7028713 13.1212205,91.7028713 C13.1212205,91.7028713 11.5457673,90.1274181 8.39486079,86.9765116 L9.41693738,77.8720802 L8.41904756,67.4779221 Z" id="Path-4" fill="#CCCCCC"></path>
                    </g>
                </g>
            </g>
        </g>
    </g>
</svg>
