<?xml version="1.0" encoding="UTF-8"?>
<svg width="60px" height="60px" viewBox="0 0 60 60" version="1.1" xmlns="http://www.w3.org/2000/svg" xmlns:xlink="http://www.w3.org/1999/xlink">
    <!-- Generator: Sketch 53 (72520) - https://sketchapp.com -->
    <title>U</title>
    <desc>Created with Sketch.</desc>
    <g id="Page-1" stroke="none" stroke-width="1" fill="none" fill-rule="evenodd">
        <g id="切图2" transform="translate(-432.000000, -117.000000)" fill="#979A9E" fill-rule="nonzero">
            <g id="Group-4" transform="translate(432.000000, 117.000000)">
                <g id="Group-36-Copy-2" transform="translate(12.000000, 6.000000)">
                    <polygon id="I" transform="translate(18.237305, 42.237305) rotate(-90.000000) translate(-18.237305, -42.237305) " points="15 25.3798828 21.4746094 25.3798828 21.4746094 59.0947266 15 59.0947266"></polygon>
                    <path d="M3,2.76269531 L9.47460938,2.76269531 L9.47460937,17.1591797 C9.51367207,20.0693505 10.3535074,22.2861252 11.9941406,23.8095703 C13.5957111,25.4111408 15.6562374,26.2119141 18.1757813,26.2119141 C20.6953251,26.2119141 22.7753824,25.4111408 24.4160156,23.8095703 C26.0175861,22.2861252 26.8378904,20.0693505 26.8769531,17.1591797 L26.8769531,2.76269531 L33.3515625,2.76269531 L33.3515625,17.8623047 C33.2734371,22.3545146 31.8183735,25.9189321 28.9863281,28.5556641 C26.1347514,31.2705214 22.5312718,32.6474607 18.1757813,32.6865234 C13.8984161,32.6474607 10.3242331,31.2705214 7.453125,28.5556641 C4.52342285,25.9189321 3.0390627,22.3545146 3,17.8623047 L3,2.76269531 Z" id="U"></path>
                </g>
            </g>
        </g>
    </g>
</svg>
